HIERARCHY
ROOT Hips
{
	OFFSET -14.64140 90.27770 -84.91600
	CHANNELS 6 Xposition Yposition Zposition Zrotation Xrotation Yrotation
	JOINT Spine
	{
		OFFSET 0.00000 13.20850 -1.60436
		CHANNELS 3 Zrotation Xrotation Yrotation
		JOINT Spine1
		{
			OFFSET 0.00000 8.61716 0.00000
			CHANNELS 3 Zrotation Xrotation Yrotation
			JOINT Spine2
			{
				OFFSET 0.00000 8.61717 0.00000
				CHANNELS 3 Zrotation Xrotation Yrotation
				JOINT Spine3
				{
					OFFSET 0.00000 8.61717 0.00000
					CHANNELS 3 Zrotation Xrotation Yrotation
					JOINT Neck
					{
						OFFSET 0.00000 11.07920 1.10792
						CHANNELS 3 Zrotation Xrotation Yrotation
						JOINT Neck1
						{
							OFFSET 0.00000 7.08032 0.00000
							CHANNELS 3 Zrotation Xrotation Yrotation
							JOINT Head
							{
								OFFSET 0.00000 7.08031 0.00000
								CHANNELS 3 Zrotation Xrotation Yrotation
								End site
								{
									OFFSET 0.00000 0.00000 0.00000
								}
							}
						}
					}
					JOINT RightShoulder
					{
						OFFSET -0.01000 7.91373 5.19711
						CHANNELS 3 Zrotation Xrotation Yrotation
						JOINT RightArm
						{
							OFFSET -18.41580 0.00000 0.00000
							CHANNELS 3 Zrotation Xrotation Yrotation
							JOINT RightForeArm
							{
								OFFSET -29.11090 0.00000 0.00000
								CHANNELS 3 Zrotation Xrotation Yrotation
								JOINT RightHand
								{
									OFFSET -24.65040 0.00000 0.00000
									CHANNELS 3 Zrotation Xrotation Yrotation
									JOINT RightHandThumb1
									{
										OFFSET -5.35114 -0.85590 3.97906
										CHANNELS 3 Zrotation Xrotation Yrotation
										JOINT RightHandThumb2
										{
											OFFSET -4.52789 0.00000 0.00000
											CHANNELS 3 Zrotation Xrotation Yrotation
											JOINT RightHandThumb3
											{
												OFFSET -2.46976 0.00000 0.00000
												CHANNELS 3 Zrotation Xrotation Yrotation
												End site
												{
													OFFSET 0.00000 0.00000 0.00000
												}
											}
										}
									}
									JOINT RightHandIndex1
									{
										OFFSET -14.26970 0.00000 2.88139
										CHANNELS 3 Zrotation Xrotation Yrotation
										JOINT RightHandIndex2
										{
											OFFSET -5.48836 0.00000 0.00000
											CHANNELS 3 Zrotation Xrotation Yrotation
											JOINT RightHandIndex3
											{
												OFFSET -3.01859 0.00000 0.00000
												CHANNELS 3 Zrotation Xrotation Yrotation
												End site
												{
													OFFSET 0.00000 0.00000 0.00000
												}
											}
										}
									}
									JOINT RightHandMiddle1
									{
										OFFSET -14.26970 0.00000 -0.09147
										CHANNELS 3 Zrotation Xrotation Yrotation
										JOINT RightHandMiddle2
										{
											OFFSET -6.17441 0.00000 0.00000
											CHANNELS 3 Zrotation Xrotation Yrotation
											JOINT RightHandMiddle3
											{
												OFFSET -3.56743 0.00000 0.00000
												CHANNELS 3 Zrotation Xrotation Yrotation
												End site
												{
													OFFSET 0.00000 0.00000 0.00000
												}
											}
										}
									}
									JOINT RightHandRing1
									{
										OFFSET -12.69180 0.00000 -3.06433
										CHANNELS 3 Zrotation Xrotation Yrotation
										JOINT RightHandRing2
										{
											OFFSET -5.62556 0.00000 0.00000
											CHANNELS 3 Zrotation Xrotation Yrotation
											JOINT RightHandRing3
											{
												OFFSET -3.56744 0.00000 0.00000
												CHANNELS 3 Zrotation Xrotation Yrotation
												End site
												{
													OFFSET 0.00000 0.00000 0.00000
												}
											}
										}
									}
									JOINT RightHandPinky1
									{
										OFFSET -11.11390 0.00000 -6.03719
										CHANNELS 3 Zrotation Xrotation Yrotation
										JOINT RightHandPinky2
										{
											OFFSET -4.52789 0.00000 0.00000
											CHANNELS 3 Zrotation Xrotation Yrotation
											JOINT RightHandPinky3
											{
												OFFSET -2.46976 0.00000 0.00000
												CHANNELS 3 Zrotation Xrotation Yrotation
												End site
												{
													OFFSET 0.00000 0.00000 0.00000
												}
											}
										}
									}
								}
							}
						}
					}
					JOINT LeftShoulder
					{
						OFFSET 0.01000 7.91373 5.19711
						CHANNELS 3 Zrotation Xrotation Yrotation
						JOINT LeftArm
						{
							OFFSET 18.41580 0.00000 0.00000
							CHANNELS 3 Zrotation Xrotation Yrotation
							JOINT LeftForeArm
							{
								OFFSET 29.11090 0.00000 0.00000
								CHANNELS 3 Zrotation Xrotation Yrotation
								JOINT LeftHand
								{
									OFFSET 24.65040 0.00000 0.00000
									CHANNELS 3 Zrotation Xrotation Yrotation
									JOINT LeftHandThumb1
									{
										OFFSET 5.35114 -0.85590 3.97906
										CHANNELS 3 Zrotation Xrotation Yrotation
										JOINT LeftHandThumb2
										{
											OFFSET 4.52789 0.00000 0.00000
											CHANNELS 3 Zrotation Xrotation Yrotation
											JOINT LeftHandThumb3
											{
												OFFSET 2.46977 0.00000 0.00000
												CHANNELS 3 Zrotation Xrotation Yrotation
												End site
												{
													OFFSET 0.00000 0.00000 0.00000
												}
											}
										}
									}
									JOINT LeftHandIndex1
									{
										OFFSET 14.26970 0.00000 2.88139
										CHANNELS 3 Zrotation Xrotation Yrotation
										JOINT LeftHandIndex2
										{
											OFFSET 5.48836 0.00000 0.00000
											CHANNELS 3 Zrotation Xrotation Yrotation
											JOINT LeftHandIndex3
											{
												OFFSET 3.01859 0.00000 0.00000
												CHANNELS 3 Zrotation Xrotation Yrotation
												End site
												{
													OFFSET 0.00000 0.00000 0.00000
												}
											}
										}
									}
									JOINT LeftHandMiddle1
									{
										OFFSET 14.26970 0.00000 -0.09147
										CHANNELS 3 Zrotation Xrotation Yrotation
										JOINT LeftHandMiddle2
										{
											OFFSET 6.17440 0.00000 0.00000
											CHANNELS 3 Zrotation Xrotation Yrotation
											JOINT LeftHandMiddle3
											{
												OFFSET 3.56744 0.00000 0.00000
												CHANNELS 3 Zrotation Xrotation Yrotation
												End site
												{
													OFFSET 0.00000 0.00000 0.00000
												}
											}
										}
									}
									JOINT LeftHandRing1
									{
										OFFSET 12.69180 0.00000 -3.06433
										CHANNELS 3 Zrotation Xrotation Yrotation
										JOINT LeftHandRing2
										{
											OFFSET 5.62556 0.00000 0.00000
											CHANNELS 3 Zrotation Xrotation Yrotation
											JOINT LeftHandRing3
											{
												OFFSET 3.56744 0.00000 0.00000
												CHANNELS 3 Zrotation Xrotation Yrotation
												End site
												{
													OFFSET 0.00000 0.00000 0.00000
												}
											}
										}
									}
									JOINT LeftHandPinky1
									{
										OFFSET 11.11390 0.00000 -6.03719
										CHANNELS 3 Zrotation Xrotation Yrotation
										JOINT LeftHandPinky2
										{
											OFFSET 4.52789 0.00000 0.00000
											CHANNELS 3 Zrotation Xrotation Yrotation
											JOINT LeftHandPinky3
											{
												OFFSET 2.46976 0.00000 0.00000
												CHANNELS 3 Zrotation Xrotation Yrotation
												End site
												{
													OFFSET 0.00000 0.00000 0.00000
												}
											}
										}
									}
								}
							}
						}
					}
					JOINT pCube4
					{
						OFFSET 0.00000 10.91090 1.10792
						CHANNELS 3 Zrotation Xrotation Yrotation
						End site
						{
							OFFSET 0.00000 0.00000 0.00000
						}
					}
				}
			}
		}
	}
	JOINT RightUpLeg
	{
		OFFSET -9.98441 0.00000 0.00000
		CHANNELS 3 Zrotation Xrotation Yrotation
		JOINT RightLeg
		{
			OFFSET 0.00000 -42.11790 0.00000
			CHANNELS 3 Zrotation Xrotation Yrotation
			JOINT RightFoot
			{
				OFFSET 0.00000 -45.00020 -0.00001
				CHANNELS 3 Zrotation Xrotation Yrotation
				JOINT RightForeFoot
				{
					OFFSET 0.00000 -3.74820 0.00000
					CHANNELS 3 Zrotation Xrotation Yrotation
					JOINT RightToeBase
					{
						OFFSET 0.00000 0.06325 14.43120
						CHANNELS 3 Zrotation Xrotation Yrotation
						End site
						{
							OFFSET 0.00000 0.00000 0.00000
						}
					}
				}
			}
		}
	}
	JOINT LeftUpLeg
	{
		OFFSET 9.98441 0.00000 0.00000
		CHANNELS 3 Zrotation Xrotation Yrotation
		JOINT LeftLeg
		{
			OFFSET 0.00000 -42.11800 0.00000
			CHANNELS 3 Zrotation Xrotation Yrotation
			JOINT LeftFoot
			{
				OFFSET 0.00000 -45.00070 0.00000
				CHANNELS 3 Zrotation Xrotation Yrotation
				JOINT LeftForeFoot
				{
					OFFSET 0.00000 -3.74824 0.00000
					CHANNELS 3 Zrotation Xrotation Yrotation
					JOINT LeftToeBase
					{
						OFFSET 0.00000 0.06325 14.43110
						CHANNELS 3 Zrotation Xrotation Yrotation
						End site
						{
							OFFSET 0.00000 0.00000 0.00000
						}
					}
				}
			}
		}
	}
}
MOTION
Frames: 4
Frame Time: 0.050000
0.025146140436373438 0.022669514115713392 0.008382171692021963 -0.03963896583251594 -0.04106284473634279 -0.03248074454031466 5.211186754449319 3.3492877397735326 -2.29256246203342 -0.8250300085780243 3.4000253224701904 0.4449308493419559 -0.5821289694135174 -0.8560515826952907 1.0934548099009942 -0.7639501158333499 -0.5296568598717243 -0.1948301835624519 -0.28913161512784075 11.204593598509014 -0.5881114095555 -0.03974647449106275 -1.0293649799944817 -1.2998358681538813 0.3055712866280621 -17.73331668640985 -0.10961427232595745 -11.011476540257167 3.9563618988988023 -17.402557624004032 81.87150309465513 -4.524530708716852 12.996983153629717 31.25570926848818 1.7440681822284108 95.16356386802921 9.20842846612867 -0.4443954835040662 -3.9161706416037947 4.575322788908011 -0.12319776540193375 -1.6105123786872138 -0.026125385479973853 0.026493778292969984 -56.279089730557395 -0.018133711220218115 -0.032448549522817394 -56.25452285566971 -38.77485182758337 -0.002806326941420799 0.030081213362599005 0.04327407688494904 0.038936327452477375 -0.04325017639296977 0.04561198708245215 0.012999670394493382 -0.028589185402347575 -36.735229334831956 -0.03583692972089998 -0.028504764576118776 -0.0007030938772058468 -0.02049704636043433 0.047979175793521345 -0.03597235230305396 0.008594821706802357 0.00968432872982669 -19.783821607645528 -0.003328842358935691 0.036484639796351886 -0.012565631539908528 -0.007896959843462448 0.009073573881827566 0.012964054573310221 0.014791338815187993 -0.01545050962631256 24.05980901962097 0.010369378473399034 0.04611222583005568 28.833946347094653 -0.027457972366250596 -0.013623008362810085 28.884708997948305 0.04922871508931724 0.03096041723318486 10.060491921096352 2.4333473642778944 14.245569408303439 -77.19626032974341 18.42529660995795 -13.082118116350886 -9.322302098413067 12.255979371286223 -56.39559499882247 -18.997170911309446 -2.3749655821144193 3.194207719178361 -0.44078099031167123 0.06365064770975581 -8.110081813521154 0.009314798168266478 -0.02694642276917156 44.57544719279949 -0.024488922525885304 -0.017009793162295696 44.60840791392814 12.432303830149994 0.03631816694675793 -0.01639810112049401 -0.02370304032397179 -0.006531588361434182 -0.010443166409549402 0.022780291851056574 0.020278907014996062 -0.009152072007120614 11.106335629554813 0.00817648937022041 0.02727730104336791 -0.015363815369131518 0.008769340624051908 -0.0021850239930433922 0.02533837104148628 0.037261711900202554 0.03834839501926183 4.773559481209739 -0.01883111975198035 -0.009266829312906498 -0.016274708347157767 -0.031318030162766235 -0.01498347443966618 -0.027657111036600426 0.021008293010898307 0.026478052962920922 -5.597849312906281 0.03134512519905829 -0.021089980875049274 -6.693654272005522 0.042207816441813394 0.017712543023671735 -6.6758604270771364 0.008293531161223163 -0.021187009988345377 0.013690989521451397 0.02349665476732853 0.04250455280713102 8.088377878807645 3.5051504022651345 -19.17745697563277 -0.024162231424370992 10.351710283451936 0.022811487781597993 -5.6108817499439 -15.700343500463308 3.225284356861423 -0.024185181624080353 0.010266559732264088 -0.0017736896844011898 -0.03578492786453212 4.733713618880875 0.02278067232118285 12.417748648478014 -8.2375067388242 6.872336995590647 0.029665305561800682 46.40298725578286 -0.01566119511947679 -4.2775120941955365 -14.71195959343171 -3.870132440017287 0.014193406360030508 0.04961295730556877 0.011331061612708871 0.04104623975661435 -10.704757956661949 0.02820517202982912 
-0.03195535739715868 0.04826111129937383 0.020205982512470293 -0.028945942388125312 0.0034601330501881594 -0.004836230236357198 5.26525679508422 3.3360864213286665 -2.2495098704464342 -0.7951903257961774 3.4135618509687156 0.4340298607276099 -0.5645968143641088 -0.8655370714750575 1.2784024231449946 -0.7724727595408976 -0.5017346760265261 -0.16996622947982318 -0.2013578955724907 11.154693244153755 -0.8332935894064905 -0.0023928233364495875 -1.107334341257473 -1.9988708188521507 0.3732809502077945 -17.832787324015925 -0.17536050094317893 -10.923302003128791 3.910496273410816 -17.43400024995086 81.23727936932146 -4.048431618119035 13.196536864985053 30.724327313364874 2.266205000989159 94.9011778106413 9.65705681980043 -0.5056080795709282 -4.016689794943189 4.4966842544967145 -0.12496294431093599 -1.5497549054976274 0.04243549512738179 -0.029921458617088004 -56.19917847835298 -0.014727088333866784 0.01319905854880276 -56.20866015446202 -38.756675028759396 0.013578461678484012 0.0008600082623349558 0.03381236613110822 0.005187701342747425 0.0419402378817599 0.00908879304007044 0.03082501023724137 0.03820998109976063 -36.73327398270114 -0.016168381682728418 -0.030931165365995255 0.011182105696973341 -0.028868965326512713 0.0018358801985498012 -0.010001437839780537 0.011141467242811263 0.048702155732153654 -19.714476868018526 -0.036508256089033735 0.02454022706915055 -0.0025753371692539334 -0.031814126731806926 0.04371239326606537 -0.022933056364531416 -0.01940598626763833 -0.03711966715554815 24.067628959402008 -0.03552015539935068 -0.029419231040903725 28.816204233605475 -0.02148270042405067 0.039889335078264004 28.822867427676552 -0.03652831226087519 0.03263438087628373 9.674374684483249 2.32417087050781 14.393372817559145 -77.31569075166857 18.4376938662932 -11.590104131634163 -7.158441837236922 11.870961005734523 -53.18179412365615 -19.29399995286814 -2.0044081831462677 3.032414116735233 -0.4589388343421927 0.07830971891645881 -8.12507121615933 -0.003328236551613314 0.033596742736188304 44.57467480843024 -0.024602931336341356 0.024019888545543402 44.56968832830317 12.45386848421695 0.04641672004706543 0.010802344357697847 -0.03302338029665838 0.04055600204253223 -0.04943974199479323 0.012461305674749727 -0.04605865621384225 0.005726857352542172 11.112111208717684 0.0023495338900176082 0.03231932676203471 -0.008423942861614887 -0.02464332915409372 -0.017150467525649964 0.040164405803212566 0.022986459690950308 0.016445831015069648 4.722719977775145 -0.004301161888318804 -0.0248436635822069 -0.03330439920863833 -0.004199737438915128 0.024387838876864857 -0.004036301928221047 -0.014645100035323003 -0.022268237678662983 -5.591365505825055 0.029565291460996162 -0.00170253404685617 -6.749107830761459 0.005161181034526184 -0.022471486839870953 -6.74414540914188 -0.0028045885021521456 -0.016714599313773244 -0.016805802067253114 -0.034934744310777956 -0.041585966386732086 8.018497084236174 3.510147100963741 -19.20579088168643 0.011218976512562692 10.40915548772005 -0.03116173033432935 -5.650948589431327 -15.631912134546825 3.206597618658116 -0.02049675526759832 0.00048540381563620606 0.03302001911147785 0.04963519398672331 4.714426877122016 0.03641327992786645 12.46440312965994 -8.244621953103822 6.841880378913935 0.035675215484390274 46.367419178612586 -0.008669920120183392 -4.318133031688353 -14.750120534336146 -3.828608826371408 0.03734564761396393 0.04347323818245151 -0.0427504907934848 -0.034566868418804554 -10.790940267777943 0.017734420689941528 
0.002114712718179664 -0.042798759347234844 0.015583426419881191 -0.026751227882381098 -0.04671872703269378 -0.008018269355577054 5.294872550353662 3.3025766452824 -2.270483648613477 -0.7953671040668034 3.4387895201838314 0.423108118708848 -0.5655916876390757 -0.8627376870720918 1.319245619102126 -0.7462300378012529 -0.5395536463655862 -0.13745867157010996 -0.026274603044107933 11.13681583632041 -1.036082767966948 0.026236567317605243 -1.1085472988939618 -2.727411509801295 0.5096424159423492 -17.98333877617135 -0.24461768134471792 -10.824371360781255 3.919022291305534 -17.476307286275322 80.88195164991649 -3.5448232774522395 12.9985468700584 30.195427646547643 2.767723311784812 94.74122241914007 10.040031961547113 -0.48593980306533774 -4.146219929779742 4.509039137234225 -0.07982270859136363 -1.5973039311712738 0.0415551432798933 -0.01209735408004366 -56.23555144025006 -0.03397437378682482 0.034712975137648525 -56.25745495220292 -38.72805177958574 -0.0038461936487408275 0.028434243679898854 0.04469496976300767 0.035435391760786965 0.0011514175927683403 -0.006178555760428429 0.02339186686379411 0.0016616176492668872 -36.660135226363316 0.04053717505283339 0.03272064534242748 -0.023189753731449148 -0.003959516185159453 -0.030729773550346937 0.013382232980821957 0.00541151676570669 0.031709664985960624 -19.710683561877147 -0.021909142557828474 -0.0188616042351923 0.0264642092323553 -0.013531466739402238 0.018509947866868815 -0.024343187223310293 0.04406589577207618 -0.03483625559517884 24.104138529772065 0.008779997881780816 -0.009031111430553332 28.852500720187713 0.026735337413252038 0.008584927659156751 28.884660380000614 0.02927870603153746 -0.048948901570690914 9.396500467293428 2.294705007767591 14.419077035632393 -77.43233927603605 18.36809658071102 -10.50890279557473 -5.814942758886834 11.497045667156229 -51.077127616475195 -19.475157754867215 -1.6490175698570022 2.8621567370751944 -0.4737381462316918 0.043639336952841085 -8.100305207560723 0.0383934961821751 -0.03816724267027804 44.52993975040051 -0.025702279791522654 -0.013278431931307845 44.52471813959077 12.451556508819033 -0.031059280152107804 0.019438674134243588 0.02192858862219997 0.032363582700983426 0.026848933592585448 0.025967980561623912 -0.006533719907665111 -0.0499761256189774 11.07920875524917 0.042474322682211206 0.03095324163898093 0.027579750618227702 -0.04060796659155928 -0.006757384839835643 -0.03648445233428164 0.004454461195172442 0.030574272795768537 4.766571188901359 -0.028441280563487797 0.03796557584562317 -0.007132392393409952 0.02309909008324523 0.03557219148708144 0.012137231736726295 0.008833702534985024 0.0016598322674841416 -5.6394879244999965 -0.0032025300378350457 0.03314653288598513 -6.748411707660089 0.01865971174126341 -0.016296581363575712 -6.675295113934354 0.026356097325056352 0.005966901343785268 -0.006473605957912914 0.015921547215723454 0.005522858151970009 8.027694025027758 3.5247965779519825 -19.2291515495724 0.017463561748682032 10.3940960082558 -0.02261215752991651 -5.59051044134264 -15.643764382902846 3.2017963575975985 0.016346094248532946 -0.017169737208883755 -0.00040085180002716645 0.009584960219362608 4.714685549043432 0.00027641250296972926 12.429387051064854 -8.226252501669872 6.922610005123347 0.015510376304148638 46.36603587875758 -0.017990709726211106 -4.320215634062467 -14.772081394522404 -3.8673450775216778 0.009028794453335487 -0.045877309019532124 -0.0054077614722213676 0.004764333103743746 -10.736486829366203 0.029700541592088556 
-0.046086063735130245 -0.035786632703140024 -0.023455126962745015 -0.02159616601202799 -0.01899909738583587 0.026416264823344943 5.234584866688731 3.1457728133872522 -2.2739829136620093 -0.7481078146589869 3.44897817895181 0.4296633718267941 -0.5697279028082407 -0.840519073784526 1.345319204510859 -0.6863322476450368 -0.5269023788926561 -0.12076935405731193 0.050965929038325204 11.077099723144196 -1.3039423282372844 0.02663934714606806 -1.2498453849716882 -3.275665440234934 0.5824538682236874 -18.062332002365352 -0.32047830540345235 -10.78937933551005 3.8164079095837553 -17.565704793792932 80.59869871795294 -3.159972340192742 12.651366591841313 29.34522580096119 3.279751334078159 95.10311199778094 10.519535852860828 -0.4670820570000692 -4.276645582694186 4.542446994756377 -0.137370847661469 -1.601517557559416 -0.04245643400857463 0.041372128051093145 -56.229392835617936 -0.04207098389145116 0.045525287232550435 -56.24281789850785 -38.77316982072444 -0.031642421207755664 0.010497326876501322 0.017214486166050497 -0.04795029545678003 0.04826809438792976 0.03680707272611794 0.011035543092320368 -0.028244379286000033 -36.71223765176752 -0.02457136378539155 -0.014291871660253568 0.03642680285037738 -0.02472371563144491 0.007194903403641146 0.0194623961155754 0.0287312679864471 -0.01985603069084323 -19.752105492343176 0.04480290643776488 0.014959939674493567 0.043075477859163366 -0.004391243111436854 -0.02275751662461973 -0.009603390936464716 0.01344199771073343 0.02477734439507245 24.055541103114507 0.012701041187003688 -0.0030097685865609018 28.838323373817946 0.0010312674436051936 -0.023206135315545745 28.822232638168167 -0.019994968226353695 0.002980727524616513 9.07472241488685 2.2854260057176243 14.445346045908696 -77.52682353853059 18.3576006311166 -9.560021892451074 -4.951317104120589 11.312136055634046 -49.842500523256525 -19.715086089789946 -1.6056684051712178 2.8089980903473726 -0.4482022585701303 0.0814620385438719 -8.158062088119479 0.0077099018579546985 -0.034516006546060664 44.54610809046499 -0.04811701944212108 -0.03410587029739469 44.577990680838774 12.50432009148697 0.00439336251597842 -0.0031438604627731215 0.030975496781232504 0.04887421834616073 0.013229827351464265 -0.017754379438607797 -0.023026994978034683 0.005328800004906489 11.154649240655278 -0.03382140216460162 0.007333976047443338 0.03062878914345816 0.03727874605363595 0.011010285797330543 -0.020364908494060384 -0.03279446208770763 -0.04700148518005202 4.79216353115331 0.006658983846255207 0.04662225056106144 0.00441666505774302 -0.028416424837708683 -0.029134350388132252 0.022059536864473588 -0.006661137082198773 -0.015171840490128676 -5.634038979738316 0.03687652762306602 0.031050241391373908 -6.713622198286098 0.027570947770513946 0.024852452467183216 -6.74552850103463 0.01633179865005505 0.0154210389348109 -0.02782679030926047 -0.0046378414648797 0.02693411247844802 7.995926640677159 3.5288410026248602 -19.171620812524093 0.029693253087913797 10.437826224246308 0.03674268169877806 -5.6436461580606085 -15.629466898032222 3.182045036457115 -0.03639836093849901 0.009735073112345541 0.02919430001932986 -0.02666860692079317 4.654309994102982 0.003246410382528766 12.422216496281086 -8.232345227528992 6.890319752322504 0.02068142720843224 46.421269753154135 0.015064701078962857 -4.358448585900756 -14.74024698688401 -3.8136161504344552 -0.030663628346280676 0.012690757165951418 -0.007289885371225753 -0.02782646036421247 -10.713779962318013 -0.035174655371070104 
